<svg width="24" height="24" viewBox="0 0 24 24" fill="none" xmlns="http://www.w3.org/2000/svg">
<path d="M0 24L1.72334 17.6031C0.333509 15.1112 -0.108053 12.2033 0.479677 9.41309C1.06741 6.62288 2.64501 4.13748 4.92298 2.41298C7.20096 0.68848 10.0265 -0.159455 12.8811 0.0247736C15.7358 0.209002 18.428 1.41304 20.4638 3.41594C22.4996 5.41883 23.7424 8.08625 23.9642 10.9287C24.186 13.7712 23.3718 16.598 21.6712 18.8904C19.9705 21.1829 17.4974 22.7873 14.7056 23.4091C11.9139 24.0309 8.99076 23.6285 6.47269 22.2757L0 24ZM6.78479 19.8819L7.18509 20.1186C9.00898 21.196 11.1393 21.6419 13.2439 21.3867C15.3486 21.1315 17.3095 20.1896 18.821 18.7077C20.3325 17.2258 21.3097 15.2873 21.6003 13.1941C21.8909 11.101 21.4786 8.97077 20.4277 7.13553C19.3767 5.30028 17.7462 3.86306 15.7901 3.04784C13.834 2.23262 11.6623 2.0852 9.61339 2.62854C7.56448 3.17188 5.75344 4.37546 4.46252 6.05173C3.1716 7.728 2.4733 9.78279 2.47645 11.8959C2.47473 13.648 2.96092 15.3662 3.8809 16.8593L4.13194 17.2717L3.1685 20.8421L6.78479 19.8819Z" fill="white"/>
<path fill-rule="evenodd" clip-rule="evenodd" d="M16.5004 13.5385C16.2657 13.3498 15.991 13.2171 15.697 13.1503C15.4031 13.0835 15.0977 13.0844 14.8042 13.153C14.3632 13.3356 14.0782 14.0253 13.7933 14.3702C13.7332 14.4529 13.6449 14.5108 13.545 14.5333C13.445 14.5557 13.3403 14.541 13.2505 14.4919C11.6359 13.8617 10.2826 12.7059 9.41031 11.2123C9.33591 11.1191 9.3007 11.0008 9.31209 10.8822C9.32348 10.7636 9.38058 10.6541 9.47137 10.5767C9.7892 10.2631 10.0226 9.8747 10.1499 9.44741C10.1781 8.9761 10.0698 8.50664 9.83775 8.095C9.65838 7.5179 9.317 7.00402 8.85396 6.61411C8.61513 6.50705 8.35033 6.47116 8.09149 6.51075C7.83266 6.55035 7.59084 6.66374 7.39523 6.83726C7.05563 7.12927 6.78608 7.49349 6.60642 7.90308C6.42677 8.31268 6.34159 8.75723 6.35716 9.20398C6.3582 9.45486 6.3901 9.70466 6.45214 9.94781C6.60969 10.532 6.85197 11.0901 7.17133 11.6045C7.40174 11.9986 7.65314 12.38 7.92444 12.7473C8.80616 13.9536 9.91449 14.9779 11.1879 15.7632C11.8269 16.1622 12.5099 16.4867 13.2234 16.7302C13.9645 17.065 14.7827 17.1935 15.5913 17.1021C16.0519 17.0326 16.4884 16.8513 16.8622 16.5742C17.2361 16.2971 17.5359 15.9327 17.7352 15.513C17.8524 15.2595 17.8879 14.976 17.837 14.7015C17.7149 14.1403 16.9618 13.8089 16.5004 13.5385Z" fill="white"/>
</svg>
